<svg width="364" height="24" viewBox="0 0 364 24" fill="none" xmlns="http://www.w3.org/2000/svg">
<path d="M12.2682 1.00031C10.1269 1.00031 8.20271 1.49565 6.49586 2.42524C4.78901 3.38575 3.45449 4.6869 2.46141 6.36011C1.46479 8.0334 1 9.92534 1 12.0002C1 14.1072 1.46551 15.9666 2.45859 17.6399C3.45167 19.3131 4.78615 20.6452 6.49305 21.5748C8.19989 22.5353 10.124 22.9997 12.2654 22.9997C13.8171 22.9997 15.2447 22.7525 16.5791 22.2258C17.9136 21.73 19.062 20.9549 19.993 19.9634L18.9996 18.9411C17.2307 20.6762 14.9963 21.5434 12.3272 21.5434C10.4962 21.5434 8.85105 21.1407 7.36158 20.3041C5.87197 19.4985 4.69315 18.352 3.85524 16.8957C2.9863 15.4394 2.58261 13.7975 2.58261 12.0003C2.58261 10.2031 2.98632 8.5918 3.85524 7.13568C4.69315 5.67938 5.87197 4.53333 7.36158 3.69673C8.85118 2.89109 10.4964 2.45742 12.3272 2.45742C15.0272 2.45742 17.2616 3.32418 18.9996 5.02835L19.993 4.00608C19.062 3.01456 17.9131 2.27077 16.6097 1.77503C15.2753 1.27929 13.8171 1.00112 12.2654 1.00112L12.2682 1.00031ZM36.2147 1.00031C34.0733 1.00031 32.1492 1.49605 30.4423 2.45661C28.7044 3.41713 27.3695 4.71828 26.3765 6.39148C25.3834 8.06468 24.9179 9.95461 24.9179 11.9995C24.9179 14.0755 25.3834 15.9344 26.3765 17.6075C27.3695 19.2807 28.7044 20.6131 30.4423 21.5737C32.1492 22.5342 34.0733 22.9986 36.2147 22.9986C38.3249 22.9986 40.2491 22.5342 41.987 21.5737C43.6938 20.6441 45.0275 19.312 46.0205 17.6388C47.0136 15.9656 47.5105 14.1063 47.5105 11.9991C47.5105 9.92315 47.0136 8.03283 46.0205 6.35949C45.0275 4.68629 43.6938 3.38517 41.987 2.42461C40.2491 1.49507 38.3249 1.00031 36.2147 1.00031ZM216.195 1.00031C214.054 1.00031 212.13 1.49565 210.423 2.42524C208.716 3.38575 207.382 4.6869 206.389 6.36011C205.395 8.03331 204.93 9.92364 204.93 11.9998C204.93 14.1068 205.395 15.9661 206.389 17.6394C207.382 19.3126 208.716 20.6447 210.423 21.5743C212.13 22.5348 214.054 22.9993 216.195 22.9993C217.747 22.9993 219.175 22.7521 220.509 22.2253C221.844 21.7296 222.992 20.9544 223.923 19.9629L222.93 18.9406C221.161 20.6758 218.926 21.5429 216.257 21.5429C214.426 21.5429 212.782 21.1403 211.292 20.3037C209.803 19.4981 208.623 18.3515 207.785 16.8952C206.916 15.4389 206.513 13.7971 206.513 11.9998C206.513 10.2027 206.916 8.59135 207.785 7.13523C208.623 5.67893 209.803 4.53288 211.292 3.69628C212.782 2.89064 214.426 2.45697 216.257 2.45697C218.957 2.45697 221.192 3.32373 222.93 5.0279L223.923 4.00564C222.992 3.01411 221.844 2.27032 220.54 1.77458C219.206 1.27884 217.747 1.00031 216.195 1.00031ZM307.584 1.00031C305.443 1.00031 303.519 1.49605 301.812 2.45661C300.074 3.41713 298.74 4.71828 297.747 6.39148C296.754 8.06468 296.289 9.95461 296.289 11.9995C296.289 14.0755 296.754 15.9344 297.747 17.6075C298.74 19.2807 300.074 20.6131 301.812 21.5737C303.519 22.5342 305.443 22.9986 307.584 22.9986C309.695 22.9986 311.619 22.5342 313.357 21.5737C315.064 20.6441 316.398 19.312 317.391 17.6388C318.384 15.9656 318.881 14.1063 318.881 11.9991C318.881 9.92315 318.384 8.03283 317.391 6.35949C316.398 4.68629 315.064 3.38517 313.357 2.42461C311.619 1.49507 309.695 1.00031 307.584 1.00031ZM355.552 1.00031C353.814 1.00031 352.386 1.27845 351.238 1.77422C350.09 2.30098 349.252 3.01393 348.693 3.88154C348.135 4.74911 347.855 5.70922 347.855 6.76273C347.855 8.0641 348.166 9.1177 348.849 9.89232C349.531 10.6669 350.338 11.2252 351.3 11.597C352.262 11.9688 353.535 12.3712 355.148 12.743C356.545 13.0839 357.662 13.3936 358.5 13.7035C359.307 14.0133 360.021 14.4783 360.579 15.036C361.138 15.6247 361.417 16.3997 361.417 17.3603C361.417 18.6307 360.89 19.6534 359.835 20.428C358.78 21.2336 357.197 21.6054 355.148 21.6054C353.721 21.6054 352.355 21.3569 351.052 20.8611C349.749 20.3654 348.724 19.6841 347.98 18.8784L347.266 20.0559C348.072 20.9234 349.19 21.6359 350.617 22.1937C352.045 22.7514 353.566 22.9989 355.18 22.9989C356.887 22.9989 358.345 22.7518 359.524 22.225C360.703 21.7293 361.573 21.0167 362.131 20.1491C362.69 19.2815 363 18.3205 363 17.267C363 15.9966 362.659 14.9743 361.976 14.2307C361.293 13.487 360.487 12.8978 359.556 12.526C358.594 12.1542 357.32 11.7828 355.738 11.3799C354.31 11.0391 353.162 10.698 352.355 10.3882C351.517 10.0783 350.835 9.64432 350.276 9.05563C349.717 8.49791 349.438 7.72374 349.438 6.73221C349.438 5.46185 349.935 4.40825 350.99 3.60262C352.014 2.79703 353.535 2.39382 355.552 2.39382C356.545 2.39382 357.569 2.54936 358.624 2.85922C359.679 3.16907 360.641 3.63354 361.51 4.22227L362.1 2.95164C361.231 2.36291 360.238 1.89853 359.09 1.5267C357.91 1.18586 356.731 1.00031 355.552 1.00031ZM55.1548 1.15457V22.8444H56.7068V4.34586L65.7996 19.9624H66.5756L75.6685 4.28385L75.6999 22.8444H77.251L77.2204 1.15457H75.9164L66.2031 17.9178L56.49 1.15457H55.1548ZM86.9495 1.15457V2.58034H94.7392C97.0357 2.58034 98.8049 3.10651 100.046 4.12901C101.257 5.1515 101.878 6.60826 101.878 8.4674C101.878 10.3575 101.257 11.8134 100.046 12.8049C98.8049 13.8274 97.0357 14.3239 94.7392 14.3239H86.9495V22.8448H88.5329V15.7491H94.7392C97.4701 15.7491 99.6119 15.1297 101.164 13.8283C102.715 12.5269 103.491 10.7606 103.491 8.46752C103.491 6.20563 102.715 4.40825 101.164 3.10674C99.6119 1.80537 97.4702 1.15457 94.7392 1.15457H86.9495ZM116.257 1.15457L106.265 22.8444H107.971L117.033 2.88944L126.126 22.8444H127.833L117.84 1.15457H116.257ZM133.932 1.15457V2.58034H141.721C144.017 2.58034 145.787 3.10651 147.028 4.12901C148.238 5.1515 148.859 6.60826 148.859 8.4674C148.859 10.3575 148.238 11.8138 147.028 12.8362C145.787 13.8587 144.017 14.3544 141.721 14.3544H133.932V22.8444H135.515V15.7488H141.721C142.342 15.7488 143.056 15.7176 143.831 15.5937L149.015 22.8446H150.815L145.38 15.2456C146.994 14.7809 148.266 13.975 149.135 12.7976C150.004 11.6202 150.47 10.1953 150.47 8.4601C150.47 6.19821 149.694 4.40082 148.142 3.09931C146.59 1.79793 144.449 1.14713 141.718 1.14713L133.932 1.15457ZM164.816 1.15457L154.822 22.8444H156.529L165.591 2.88944L174.684 22.8444H176.391L166.398 1.15457H164.816ZM182.49 1.15457V2.58034H190.279C192.576 2.58034 194.345 3.10651 195.586 4.12901C196.797 5.1515 197.417 6.60826 197.417 8.4674C197.417 10.3575 196.797 11.8138 195.586 12.8362C194.345 13.8587 192.576 14.3544 190.279 14.3544H182.49V22.8444H184.072V15.7488H190.279C190.9 15.7488 191.614 15.7176 192.39 15.5937L197.572 22.8446H199.372L193.941 15.2528C195.555 14.788 196.827 13.9821 197.696 12.8047C198.565 11.6273 199.031 10.2024 199.031 8.46723C199.031 6.20534 198.256 4.40795 196.704 3.10644C195.152 1.80507 193.011 1.15427 190.28 1.15427L182.49 1.15457ZM237.165 1.15457L227.172 22.8444H228.879L237.941 2.88944L247.034 22.8444H248.741L238.748 1.15457H237.165ZM254.84 1.15457V2.58034H262.629C264.926 2.58034 266.694 3.10651 267.936 4.12901C269.146 5.1515 269.767 6.60826 269.767 8.4674C269.767 10.3575 269.146 11.8138 267.936 12.8362C266.694 13.8587 264.926 14.3544 262.629 14.3544H254.84V22.8444H256.422V15.7488H262.629C263.25 15.7488 263.963 15.7176 264.739 15.5937L269.923 22.8446H271.722L266.292 15.2528C267.905 14.788 269.178 13.9821 270.047 12.8047C270.915 11.6273 271.381 10.2024 271.381 8.46723C271.381 6.20534 270.605 4.40795 269.053 3.10644C267.502 1.80507 265.361 1.15427 262.63 1.15427L254.84 1.15457ZM275.396 1.15457V2.58034H283.216V22.8446H284.799V2.58034H292.62V1.15457H275.396ZM326.523 1.15457V2.58034H340.58V1.15457H326.523ZM36.2129 2.45661C38.0128 2.45661 39.6576 2.89028 41.1472 3.69592C42.6058 4.53253 43.7541 5.67858 44.623 7.13488C45.4609 8.59118 45.8948 10.2025 45.8948 11.9995C45.8948 13.7966 45.4609 15.4384 44.623 16.8949C43.7541 18.3512 42.6058 19.4977 41.1472 20.3033C39.6576 21.1399 38.0128 21.5426 36.2129 21.5426C34.3819 21.5426 32.7367 21.1399 31.2472 20.3033C29.7576 19.4977 28.6093 18.3512 27.7714 16.8949C26.9025 15.4386 26.4988 13.7967 26.4988 11.9995C26.4988 10.2023 26.9025 8.591 27.7714 7.13488C28.6093 5.67858 29.7576 4.53253 31.2472 3.69592C32.7368 2.89029 34.382 2.45661 36.2129 2.45661ZM307.583 2.45661C309.383 2.45661 311.027 2.89028 312.517 3.69592C313.976 4.53253 315.124 5.67858 315.993 7.13488C316.831 8.59118 317.265 10.2025 317.265 11.9995C317.265 13.7966 316.831 15.4384 315.993 16.8949C315.124 18.3512 313.976 19.4977 312.517 20.3033C311.027 21.1399 309.383 21.5426 307.583 21.5426C305.752 21.5426 304.107 21.1399 302.618 20.3033C301.128 19.4977 299.98 18.3512 299.142 16.8949C298.273 15.4386 297.869 13.7967 297.869 11.9995C297.869 10.2023 298.273 8.591 299.142 7.13488C299.98 5.67858 301.128 4.53253 302.618 3.69592C304.107 2.89029 305.752 2.45661 307.583 2.45661ZM326.524 11.1323V12.5258H340.582V11.1323H326.524ZM326.524 21.4188V22.8446H340.582V21.4188H326.524Z" fill="black" stroke="url(#paint0_linear_1531_1201)"/>
<defs>
<linearGradient id="paint0_linear_1531_1201" x1="-6.99999" y1="-4.00008" x2="395" y2="34.9999" gradientUnits="userSpaceOnUse">
<stop/>
<stop offset="1" stop-color="#2F88FF"/>
</linearGradient>
</defs>
</svg>
